<mxfile host="app.diagrams.net" agent="Mozilla/5.0 (Macintosh; Intel Mac OS X 10_15_7) AppleWebKit/537.36 (KHTML, like Gecko) Chrome/131.0.0.0 Safari/537.36" version="25.0.3">
  <diagram name="Page-1" id="tfkyqaEvucpoPX9NGhfa">
    <mxGraphModel dx="3063" dy="2751" grid="1" gridSize="20" guides="1" tooltips="1" connect="1" arrows="1" fold="1" page="1" pageScale="1" pageWidth="1700" pageHeight="2000" math="0" shadow="0">
      <root>
        <mxCell id="0" />
        <mxCell id="1" parent="0" />
        <mxCell id="ty2LM_nqQ7T1OHok4pah-15" style="edgeStyle=orthogonalEdgeStyle;rounded=0;orthogonalLoop=1;jettySize=auto;html=1;exitX=0.5;exitY=1;exitDx=0;exitDy=0;entryX=0.5;entryY=0;entryDx=0;entryDy=0;strokeWidth=2;strokeColor=#3399FF;" parent="1" source="ty2LM_nqQ7T1OHok4pah-1" target="ty2LM_nqQ7T1OHok4pah-5" edge="1">
          <mxGeometry relative="1" as="geometry" />
        </mxCell>
        <mxCell id="ty2LM_nqQ7T1OHok4pah-16" style="edgeStyle=orthogonalEdgeStyle;rounded=0;orthogonalLoop=1;jettySize=auto;html=1;exitX=0.5;exitY=1;exitDx=0;exitDy=0;entryX=0.5;entryY=0;entryDx=0;entryDy=0;strokeWidth=2;strokeColor=#3399FF;" parent="1" source="ty2LM_nqQ7T1OHok4pah-1" target="ty2LM_nqQ7T1OHok4pah-6" edge="1">
          <mxGeometry relative="1" as="geometry" />
        </mxCell>
        <mxCell id="ty2LM_nqQ7T1OHok4pah-17" style="edgeStyle=orthogonalEdgeStyle;rounded=0;orthogonalLoop=1;jettySize=auto;html=1;exitX=0.5;exitY=1;exitDx=0;exitDy=0;entryX=0.5;entryY=0;entryDx=0;entryDy=0;strokeWidth=2;strokeColor=#3399FF;" parent="1" source="ty2LM_nqQ7T1OHok4pah-1" target="ty2LM_nqQ7T1OHok4pah-7" edge="1">
          <mxGeometry relative="1" as="geometry" />
        </mxCell>
        <mxCell id="ty2LM_nqQ7T1OHok4pah-18" style="edgeStyle=orthogonalEdgeStyle;rounded=0;orthogonalLoop=1;jettySize=auto;html=1;exitX=0.5;exitY=1;exitDx=0;exitDy=0;entryX=0.5;entryY=0;entryDx=0;entryDy=0;strokeWidth=2;strokeColor=#3399FF;" parent="1" source="ty2LM_nqQ7T1OHok4pah-1" target="ty2LM_nqQ7T1OHok4pah-8" edge="1">
          <mxGeometry relative="1" as="geometry" />
        </mxCell>
        <mxCell id="ty2LM_nqQ7T1OHok4pah-19" style="edgeStyle=orthogonalEdgeStyle;rounded=0;orthogonalLoop=1;jettySize=auto;html=1;exitX=0.5;exitY=1;exitDx=0;exitDy=0;entryX=0.5;entryY=0;entryDx=0;entryDy=0;strokeWidth=2;strokeColor=#3399FF;" parent="1" source="ty2LM_nqQ7T1OHok4pah-1" target="ty2LM_nqQ7T1OHok4pah-9" edge="1">
          <mxGeometry relative="1" as="geometry" />
        </mxCell>
        <mxCell id="ty2LM_nqQ7T1OHok4pah-20" style="edgeStyle=orthogonalEdgeStyle;rounded=0;orthogonalLoop=1;jettySize=auto;html=1;exitX=0.5;exitY=1;exitDx=0;exitDy=0;entryX=0.5;entryY=0;entryDx=0;entryDy=0;strokeWidth=2;strokeColor=#3399FF;" parent="1" source="ty2LM_nqQ7T1OHok4pah-1" target="ty2LM_nqQ7T1OHok4pah-10" edge="1">
          <mxGeometry relative="1" as="geometry" />
        </mxCell>
        <mxCell id="ty2LM_nqQ7T1OHok4pah-25" style="edgeStyle=orthogonalEdgeStyle;rounded=0;orthogonalLoop=1;jettySize=auto;html=1;exitX=0.5;exitY=1;exitDx=0;exitDy=0;entryX=0.5;entryY=0;entryDx=0;entryDy=0;strokeWidth=2;strokeColor=#3399FF;" parent="1" source="ty2LM_nqQ7T1OHok4pah-1" target="ty2LM_nqQ7T1OHok4pah-3" edge="1">
          <mxGeometry relative="1" as="geometry" />
        </mxCell>
        <mxCell id="ty2LM_nqQ7T1OHok4pah-29" style="edgeStyle=orthogonalEdgeStyle;rounded=0;orthogonalLoop=1;jettySize=auto;html=1;exitX=0.5;exitY=1;exitDx=0;exitDy=0;entryX=0.5;entryY=0;entryDx=0;entryDy=0;strokeWidth=2;strokeColor=#3399FF;" parent="1" source="ty2LM_nqQ7T1OHok4pah-1" target="ty2LM_nqQ7T1OHok4pah-4" edge="1">
          <mxGeometry relative="1" as="geometry" />
        </mxCell>
        <mxCell id="ty2LM_nqQ7T1OHok4pah-1" value="Navigation Bar" style="rounded=0;whiteSpace=wrap;html=1;fillColor=#ffe6cc;strokeColor=#d79b00;strokeWidth=2;" parent="1" vertex="1">
          <mxGeometry x="-950" y="-1680" width="160" height="60" as="geometry" />
        </mxCell>
        <mxCell id="ty2LM_nqQ7T1OHok4pah-24" style="edgeStyle=orthogonalEdgeStyle;rounded=0;orthogonalLoop=1;jettySize=auto;html=1;exitX=0.5;exitY=1;exitDx=0;exitDy=0;entryX=0.5;entryY=0;entryDx=0;entryDy=0;strokeWidth=2;strokeColor=#3399FF;" parent="1" source="ty2LM_nqQ7T1OHok4pah-3" target="ty2LM_nqQ7T1OHok4pah-11" edge="1">
          <mxGeometry relative="1" as="geometry" />
        </mxCell>
        <mxCell id="ty2LM_nqQ7T1OHok4pah-26" style="edgeStyle=orthogonalEdgeStyle;rounded=0;orthogonalLoop=1;jettySize=auto;html=1;exitX=0.5;exitY=1;exitDx=0;exitDy=0;entryX=0.25;entryY=1;entryDx=0;entryDy=0;strokeWidth=2;strokeColor=#3399FF;" parent="1" source="ty2LM_nqQ7T1OHok4pah-3" target="ty2LM_nqQ7T1OHok4pah-5" edge="1">
          <mxGeometry relative="1" as="geometry" />
        </mxCell>
        <mxCell id="ty2LM_nqQ7T1OHok4pah-3" value="" style="shape=image;verticalLabelPosition=bottom;labelBackgroundColor=default;verticalAlign=top;aspect=fixed;imageAspect=0;image=data:image/png,iVBORw0KGgoAAAANSUhEUgAAAOEAAADhCAMAAAAJbSJIAAAAflBMVEX///8UFBQAAAD8/PwLCwsSEhJUVFQWFhYYGBj5+fkqKioPDw8aGho7Ozv29va/v78vLy/s7Ox9fX2ZmZnw8PDU1NR1dXU0NDTa2trh4eFCQkKRkZGpqalaWlrKyspkZGS1tbWJiYmgoKCCgoIjIyM/Pz+mpqZvb29nZ2dNTU0MqgoXAAAM5klEQVR4nO1dCUPiOhBuJwlpt6VYBDmUQ0VX//8ffDOTo3WFUhEo8PLt6rr0yte5J2mNooCAgICAgICAgICAgICAgICAgICAgICAgG9IhUHa9UBOBmSI32+aYTS9H95Po9tlGD0D4bnrYZwGpJ8LiFWiYljY/98WUlEgQQNYFLdoi6UnSBTLrodzfJQ9yDzDDHo3R3H0Bkp7hlrB26jrIR0RaHOzpFJRq6jJDG2z66EdDbPJvwSR4mTW9bCOBjHeQpAojm9FhuMc4uQbwSSGfNz10H4HjnhoalOQSitmpWIF+GV+1krCNDKB8UqjI+bZ+HdQixLoQxd1n5rBwO51rcCRr2smiAQfo8c6xRjWV53A4dCfIFOejoL7NErvofZJBk/XS5HG/YS5dl4RfEKzE/ihp5hjHv4UXRbHnWMRdWviUj6KXjwX1EyFGmmMbo0fa78FXvz+3UPsdno09tp+XMzfVzaodMYEBX+tIfMMSXeFP6ZriCjaVfaggdUp0n+fvziZeMAkCv4+iL+4m2c+/BKAAy92bEq/qClWg9EQkkpOEpasiAVuoB+WGCT9xhyG0YVUjCIaff6524r8pbYX6ewDKLQ2y0HB2Ac+8++YNhvxkqI+8LZL0NNRH2S2DXBv98CRor9MP+oxQf4Zkx46AqzD4z+yHkc+Uvr4AtxN8VYN6wuQoRkdu5xiVSOo4W0cWWfpv6MU36CyRQUrttDuGY762TZ+zNCABj/qQVwxhLcZf+600Ggx1lRvNV8bQ28UXULIQIZqG2oyjETxBnns5QN3ZS1aGk9lJFreeYo6zuGtuISI0SRDYSN3WZWDGmukPqkfGmGaovFtYDPmeMESxVuhq7oKJuUFRP5GLTWBe9qv7EtpWBRsmuxIlrlUMl9aPaXgsaiFFA39qWN/mQzN4IigH3QCH7bjRLMVy4QqxIwompuB5/v4cjssxS6xj2E0xRo39wxhZZIVVj6M8jrWWmP0j6zbQd1deZXG40BNu46K+7R0rGWcmIxMcSBPjRFGVCkqDvKUgy8jJ8SUUgPjeLVKYqnHHVNsYEhiGuhqMzqZVz4mTSkjW1cRUik5YLU1idprvY2TabOpM5bNWjpQ9a3waBjwnChWirVcO5Zrni81d+Cx3orL1KDadGkMsSiqaCj6hMdJInyBLKnMU8dYS7nAgN9rZf+XTZfGcA0y90UREzQyRCt8RwpJLQ2lJtTa5WhpnaJWuYR1h+3w3Qzfn4zfR2+iqN59p92paYE8Hrd0hDX1NDANMDTfqSamI82md2bfCc2dDOOJFxJlcWhnzJAj+6OvlGpQ1L6oDG4tlXJ7mRwwbegodMFQ2S8KBopaMl5DsdZX8RaGMfUWhZVhaoOJNpqKXirqqNDYLcNcbZQToY13ESfar/Xcs6alpMr3LhWPKCGohJgTxXRXP6EbhpoyGeqo2Wa9oYj/PADnat9lmCgWFXenTL5n2v9aZZQz2LL/chhamhTnN2bCxZTCC9hRMhuaniIBKw883rljWIkuOv6NDBPqEcq7qZMfZiaLbU6mfkvgWbjiEaV4J6nvaJRayVXaQR7eyDDLMw2bWa0UXtVzgG0MMTK8+vRNRLMNaDyL2aRgNTr/tNQehjHI0ikWBrsFxPmWqcMKOdni0AU+PLCUeAhfIokTKi4vR0vJNeoc5lwOpiyW8nPb1O/3I+GvbaLyBeaQ45mMMWqYl2l63ix1J8OM0jK3ToZybVHOMU9pwRCDy99aMVGi6aK7MZfJ4a2kxOd8BHczTBKVwKoUrtMUUbcmb/IyniG6mw/hEphClCvAc7FuU1y8m523BbfbDrMceoWrXnGcfSzo8yYb9AxzlcPfomo1Fj3I7VUoD9/MzpqfbmNIkZ5ysJWfdCK/TxmKbiNDTtZNQ9j1oaifTAdnnOMmy3P2p7YxNEUBDK0QikJQyz7fQqWBJClA4SxODMGUKLQJ480gOl/FuFWGmrzesx0D9SwwOWmjn19uE1G0y4fxTM9UihkVyDPT9OiSIeaYnH2ZXVBFs3baWSeIttgb1QLjIzVSTbGiY56bO5ND3coQw8Szn1ZBFZWYlzSmMt+BCbeGz1FtcgdrrsS14NAGBl3ZIY4sVxnYycOUCA4gacrOG+SIwY903CrDC2Z8zpiR4jua6Tk09V+GmsvVJ5tr0wjW8ssM9k+QQ7/0BAUv5HBTrLbv0wFDlaB2rX1fkCQo2waJf6FyzfHd9yDX6G60ZZiToogz1MTfZIj17lPlA3mNlz6QIaZ9uZzMLA2S5ZNbMYZp3IbWbJzc3WBF26/dc8xGkKD3AbyMZGs93w6Ku+F/pr7HxhpBOY/SXDXCK8+BnJShKN9kdcvxqnKzdDaIN/29ud5tg4Tm/EVaWL+83Eisq11whQ8qNE4pRyGKSktRhDEPx2zCdOS+sWPRDgpv2tjT4OyIq0girzR8FCd2N2l5V/XfqWU0dQuFuDef5YfFiS/IMzn1aXgaTZNMaW0vGGOKftqQUaxkfYaBOxa2miAJ5lmreqkJlMPH0msGdzZcJ0RTobU62SL/AtUQC3BzOxUv85mXRny8VGYIP8u1GyBzXllr9ZFKaeWSVIxN8wJz31OEDSI48fO7VPB8lr4aFOKhPvX7S2CWlA18O1xwO8S6MJonnoyik1T9eKE56SFfKIkpi/TBOSpoIvcYRmho0BTbMnINf1prhrHfOFS0A9SdU4QMtIe+NJ1tRk1ZmCBV40dTU5r7ALuegc2jmNumlqL5O9mfHZkiF9/TDRoalaWU8Wusyf0iLrva4CiO1PJAl0ITjJFb0UCdV21nAlBZYDN1W44Dir9jsNJDf0mTCkU1v5vOfx/ovyO36aDNB1FNsIzJjJpgMYnetjieMRa0FEZZBaXgBEPfOEpF8Qk/LAZbwc4F+7BRDMFlvJTHJctjzk1h8hSTimp7enhA7bRtw39W6R0PuaHom4w1d61JUePlMW1xANTRtoLSMLSLSBEpurlWfd8fQyU0SeAqT156OnTrpzR1xTFmHgXoMbHalkZMaOkJT07zJpJjeQetmqKH0oRHtBFXfdLa/8T2NjDx4YH8XlO5SsO7ZuaDSEWf/BqKKCoxL9ZHc6HfCeb1mXAeirLLPUhxqqH8Bmn0jrHOdhMy6+CcDc4mR6gmmhhiBKrq3oIpShuUaFDw/vvJN6oY6H7Zs/JDPD7Q04OTh7YsWkFzCuMoUuinst/ebVIev273cH700ATFWc2eVLJ1C7vkbpyz5avT2SFdlh7HcD0Sui6V/TFP9/Oz/c+/CfykjENwiRrqv1JL60K5c0/aezJyNbDzTm3ox9BMesORn2wSt0XFoRzR3mpPhWBBny2d2lMOgC77aNVEI0FNAdg5VBzBMpNVIzWB18Nr4kJQGmFPhndrs/RPN+FllMRC4ySRcAtJGLpWAg1huXHLkKm1DsPDm4z1pyN5EUk1HTvgdU6n9DIeOdN4SH2aKHhZSm1k60MJRgvXVyNFmcycigpeaHcu+dkRQG8kKg2iMKVds1guDmbYz1wmmsCkdAYtIvNs71m8jAX6a5iPnLlRLjVBD2Gz1Kx/MMO5dDTkvEz9glchPiBXh05OHAQKDTy/FdkhpOXcKhjKcH4ww6GrCalvUIjUpTJFT1Kf/YwM6Vqy5/KXgh7+K23Zz8/2HQgxU5g20SK6RRFVD3niHexJpZJzMqSufsXQjITed4OBMVNqdnA8jAYSAP8+FPX0DwunHnVNzyxDRQxrVFLqDtHo5OGTp/Q+hOHnfLX+2hK5EIY0qPVq/jmc7nxydy/YsxSjyL2G7MIYMq9R4QZ6CFLzKAj50LSW+l0GQ+pDCbPcPT12f/gyGJ4SgWFgGBgGhoFhYBgYBoaBYWAYGAaGgWFgGBgGhoFhYHh5DGmFfdN+ip7/vmqGKo9147PcuuVzphfLMM9gH7I2q1Ivl2EmHwbrwW6sBw+yzZKqy2VIryjZg23vrrkWhrTaff8qicKvUr8+hvQmnf1DEm2Wp14oQ5Lh/lmh9IplqIwMm0YljAyvlWHMMmwelGAZtjjTRTJUre3wWmV4+3YYt2bY4kwXyfD2ZXj7DIOWGlyzDG+fYdBSg2uW4e0zDFpqcM0yvH2GQUsNrlmGt88waKnBNcvw9hkGLTW4ZhnePsOgpQbXLMPbZxi01OCaZXj7DIOWGlyzDG+fYdBSg2uW4e0zDFpqcM0yvH2G/w8tvc7VJvTmD34NF/+uO/vn+w/0B9LmX5qOW1P4csTWH/h+Qi897UuSK4ZRuqA3y+99hRIzbP4Vf/Ru0K2/d+6fM9HV5OJMMqRXNbxALFsgk7D3JVWFANyvxblieq/+eYRIF3mc/GmFzZ5fRE2/12vT7lSTx+g3L5/7IcUfXGjfrj861ZkIBgQEBAQEBAQEBAQEBAQEBAQEBAQEBAQEBAT8T/EfidXEmexc4qcAAAAASUVORK5CYII=;strokeWidth=2;imageBorder=default;imageBackground=#FFFFFF;" parent="1" vertex="1">
          <mxGeometry x="-1640" y="-1487" width="80" height="80" as="geometry" />
        </mxCell>
        <mxCell id="ty2LM_nqQ7T1OHok4pah-4" value="Sacraments" style="rounded=0;whiteSpace=wrap;html=1;fillColor=#e1d5e7;strokeColor=#9673a6;strokeWidth=2;" parent="1" vertex="1">
          <mxGeometry x="-1500" y="-1487" width="160" height="60" as="geometry" />
        </mxCell>
        <mxCell id="ty2LM_nqQ7T1OHok4pah-37" style="edgeStyle=orthogonalEdgeStyle;rounded=0;orthogonalLoop=1;jettySize=auto;html=1;exitX=0.5;exitY=1;exitDx=0;exitDy=0;entryX=0;entryY=0.5;entryDx=0;entryDy=0;jumpStyle=arc;jumpSize=10;strokeWidth=2;strokeColor=#3399FF;" parent="1" source="ty2LM_nqQ7T1OHok4pah-5" target="ty2LM_nqQ7T1OHok4pah-12" edge="1">
          <mxGeometry relative="1" as="geometry" />
        </mxCell>
        <mxCell id="ty2LM_nqQ7T1OHok4pah-50" style="edgeStyle=orthogonalEdgeStyle;rounded=0;orthogonalLoop=1;jettySize=auto;html=1;exitX=0.5;exitY=1;exitDx=0;exitDy=0;entryX=0;entryY=0.5;entryDx=0;entryDy=0;strokeWidth=2;strokeColor=#3399FF;" parent="1" source="ty2LM_nqQ7T1OHok4pah-5" target="ty2LM_nqQ7T1OHok4pah-39" edge="1">
          <mxGeometry relative="1" as="geometry" />
        </mxCell>
        <mxCell id="ty2LM_nqQ7T1OHok4pah-51" style="edgeStyle=orthogonalEdgeStyle;rounded=0;orthogonalLoop=1;jettySize=auto;html=1;exitX=0.5;exitY=1;exitDx=0;exitDy=0;entryX=0;entryY=0.5;entryDx=0;entryDy=0;strokeWidth=2;strokeColor=#3399FF;" parent="1" source="ty2LM_nqQ7T1OHok4pah-5" target="ty2LM_nqQ7T1OHok4pah-40" edge="1">
          <mxGeometry relative="1" as="geometry" />
        </mxCell>
        <mxCell id="ty2LM_nqQ7T1OHok4pah-52" style="edgeStyle=orthogonalEdgeStyle;rounded=0;orthogonalLoop=1;jettySize=auto;html=1;exitX=0.5;exitY=1;exitDx=0;exitDy=0;entryX=0;entryY=0.5;entryDx=0;entryDy=0;strokeWidth=2;strokeColor=#3399FF;" parent="1" source="ty2LM_nqQ7T1OHok4pah-5" target="ty2LM_nqQ7T1OHok4pah-41" edge="1">
          <mxGeometry relative="1" as="geometry" />
        </mxCell>
        <mxCell id="ty2LM_nqQ7T1OHok4pah-53" style="edgeStyle=orthogonalEdgeStyle;rounded=0;orthogonalLoop=1;jettySize=auto;html=1;exitX=0.5;exitY=1;exitDx=0;exitDy=0;entryX=0;entryY=0.5;entryDx=0;entryDy=0;strokeWidth=2;strokeColor=#3399FF;" parent="1" source="ty2LM_nqQ7T1OHok4pah-5" target="ty2LM_nqQ7T1OHok4pah-42" edge="1">
          <mxGeometry relative="1" as="geometry" />
        </mxCell>
        <mxCell id="ty2LM_nqQ7T1OHok4pah-54" style="edgeStyle=orthogonalEdgeStyle;rounded=0;orthogonalLoop=1;jettySize=auto;html=1;exitX=0.5;exitY=1;exitDx=0;exitDy=0;entryX=0;entryY=0.5;entryDx=0;entryDy=0;strokeWidth=2;strokeColor=#3399FF;" parent="1" source="ty2LM_nqQ7T1OHok4pah-5" target="ty2LM_nqQ7T1OHok4pah-47" edge="1">
          <mxGeometry relative="1" as="geometry" />
        </mxCell>
        <mxCell id="ty2LM_nqQ7T1OHok4pah-55" style="edgeStyle=orthogonalEdgeStyle;rounded=0;orthogonalLoop=1;jettySize=auto;html=1;exitX=0.5;exitY=1;exitDx=0;exitDy=0;entryX=0;entryY=0.5;entryDx=0;entryDy=0;strokeWidth=2;strokeColor=#3399FF;" parent="1" source="ty2LM_nqQ7T1OHok4pah-5" target="ty2LM_nqQ7T1OHok4pah-48" edge="1">
          <mxGeometry relative="1" as="geometry" />
        </mxCell>
        <mxCell id="ty2LM_nqQ7T1OHok4pah-56" style="edgeStyle=orthogonalEdgeStyle;rounded=0;orthogonalLoop=1;jettySize=auto;html=1;exitX=0.5;exitY=1;exitDx=0;exitDy=0;entryX=0;entryY=0.5;entryDx=0;entryDy=0;strokeWidth=2;strokeColor=#3399FF;" parent="1" source="ty2LM_nqQ7T1OHok4pah-5" target="ty2LM_nqQ7T1OHok4pah-49" edge="1">
          <mxGeometry relative="1" as="geometry" />
        </mxCell>
        <mxCell id="ty2LM_nqQ7T1OHok4pah-61" style="edgeStyle=orthogonalEdgeStyle;rounded=0;orthogonalLoop=1;jettySize=auto;html=1;exitX=0.5;exitY=1;exitDx=0;exitDy=0;entryX=0;entryY=0.5;entryDx=0;entryDy=0;strokeWidth=2;strokeColor=#3399FF;" parent="1" source="ty2LM_nqQ7T1OHok4pah-5" target="ty2LM_nqQ7T1OHok4pah-57" edge="1">
          <mxGeometry relative="1" as="geometry" />
        </mxCell>
        <mxCell id="ty2LM_nqQ7T1OHok4pah-62" style="edgeStyle=orthogonalEdgeStyle;rounded=0;orthogonalLoop=1;jettySize=auto;html=1;exitX=0.5;exitY=1;exitDx=0;exitDy=0;entryX=0;entryY=0.5;entryDx=0;entryDy=0;strokeWidth=2;strokeColor=#3399FF;" parent="1" source="ty2LM_nqQ7T1OHok4pah-5" target="ty2LM_nqQ7T1OHok4pah-58" edge="1">
          <mxGeometry relative="1" as="geometry" />
        </mxCell>
        <mxCell id="ty2LM_nqQ7T1OHok4pah-63" style="edgeStyle=orthogonalEdgeStyle;rounded=0;orthogonalLoop=1;jettySize=auto;html=1;exitX=0.5;exitY=1;exitDx=0;exitDy=0;entryX=0;entryY=0.5;entryDx=0;entryDy=0;strokeWidth=2;strokeColor=#3399FF;" parent="1" source="ty2LM_nqQ7T1OHok4pah-5" target="ty2LM_nqQ7T1OHok4pah-59" edge="1">
          <mxGeometry relative="1" as="geometry" />
        </mxCell>
        <mxCell id="ty2LM_nqQ7T1OHok4pah-5" value="Ministries" style="rounded=0;whiteSpace=wrap;html=1;fillColor=#e1d5e7;strokeColor=#9673a6;strokeWidth=2;" parent="1" vertex="1">
          <mxGeometry x="-1280" y="-1487" width="160" height="60" as="geometry" />
        </mxCell>
        <mxCell id="ty2LM_nqQ7T1OHok4pah-6" value="Becoming Catholic" style="rounded=0;whiteSpace=wrap;html=1;fillColor=#e1d5e7;strokeColor=#9673a6;strokeWidth=2;" parent="1" vertex="1">
          <mxGeometry x="-1060" y="-1487" width="160" height="60" as="geometry" />
        </mxCell>
        <mxCell id="ty2LM_nqQ7T1OHok4pah-34" style="edgeStyle=orthogonalEdgeStyle;rounded=0;orthogonalLoop=1;jettySize=auto;html=1;exitX=0.5;exitY=1;exitDx=0;exitDy=0;entryX=0;entryY=0.5;entryDx=0;entryDy=0;strokeWidth=2;strokeColor=#3399FF;" parent="1" source="ty2LM_nqQ7T1OHok4pah-7" target="ty2LM_nqQ7T1OHok4pah-33" edge="1">
          <mxGeometry relative="1" as="geometry" />
        </mxCell>
        <mxCell id="ty2LM_nqQ7T1OHok4pah-35" style="edgeStyle=orthogonalEdgeStyle;rounded=0;orthogonalLoop=1;jettySize=auto;html=1;exitX=0.5;exitY=1;exitDx=0;exitDy=0;entryX=0;entryY=0.5;entryDx=0;entryDy=0;strokeWidth=2;strokeColor=#3399FF;" parent="1" source="ty2LM_nqQ7T1OHok4pah-7" target="ty2LM_nqQ7T1OHok4pah-32" edge="1">
          <mxGeometry relative="1" as="geometry" />
        </mxCell>
        <mxCell id="ty2LM_nqQ7T1OHok4pah-36" style="edgeStyle=orthogonalEdgeStyle;rounded=0;orthogonalLoop=1;jettySize=auto;html=1;exitX=0.5;exitY=1;exitDx=0;exitDy=0;entryX=0;entryY=0.5;entryDx=0;entryDy=0;strokeWidth=2;strokeColor=#3399FF;" parent="1" source="ty2LM_nqQ7T1OHok4pah-7" target="ty2LM_nqQ7T1OHok4pah-31" edge="1">
          <mxGeometry relative="1" as="geometry" />
        </mxCell>
        <mxCell id="ty2LM_nqQ7T1OHok4pah-7" value="Events" style="rounded=0;whiteSpace=wrap;html=1;fillColor=#e1d5e7;strokeColor=#9673a6;strokeWidth=2;" parent="1" vertex="1">
          <mxGeometry x="-840" y="-1487" width="160" height="60" as="geometry" />
        </mxCell>
        <mxCell id="ty2LM_nqQ7T1OHok4pah-8" value="Staff" style="rounded=0;whiteSpace=wrap;html=1;fillColor=#e1d5e7;strokeColor=#9673a6;strokeWidth=2;" parent="1" vertex="1">
          <mxGeometry x="-620" y="-1487" width="160" height="60" as="geometry" />
        </mxCell>
        <mxCell id="ty2LM_nqQ7T1OHok4pah-9" value="Contact Us" style="rounded=0;whiteSpace=wrap;html=1;fillColor=#e1d5e7;strokeColor=#9673a6;strokeWidth=2;" parent="1" vertex="1">
          <mxGeometry x="-400" y="-1487" width="160" height="60" as="geometry" />
        </mxCell>
        <mxCell id="ty2LM_nqQ7T1OHok4pah-10" value="Mass Times" style="rounded=0;whiteSpace=wrap;html=1;fillColor=#e1d5e7;strokeColor=#9673a6;strokeWidth=2;" parent="1" vertex="1">
          <mxGeometry x="-180" y="-1487" width="160" height="60" as="geometry" />
        </mxCell>
        <mxCell id="ty2LM_nqQ7T1OHok4pah-11" value="Past Bulletins" style="rounded=0;whiteSpace=wrap;html=1;fillColor=#d5e8d4;strokeColor=#82b366;strokeWidth=2;" parent="1" vertex="1">
          <mxGeometry x="-1680" y="-1317" width="160" height="60" as="geometry" />
        </mxCell>
        <mxCell id="ty2LM_nqQ7T1OHok4pah-12" value="About the Parish" style="rounded=0;whiteSpace=wrap;html=1;fillColor=#d5e8d4;strokeColor=#82b366;strokeWidth=2;" parent="1" vertex="1">
          <mxGeometry x="-1150" y="-1317" width="160" height="60" as="geometry" />
        </mxCell>
        <mxCell id="ty2LM_nqQ7T1OHok4pah-31" value="Event 1" style="rounded=0;whiteSpace=wrap;html=1;fillColor=#d5e8d4;strokeColor=#82b366;strokeWidth=2;" parent="1" vertex="1">
          <mxGeometry x="-700" y="-1317" width="160" height="60" as="geometry" />
        </mxCell>
        <mxCell id="ty2LM_nqQ7T1OHok4pah-32" value="Event 2" style="rounded=0;whiteSpace=wrap;html=1;fillColor=#d5e8d4;strokeColor=#82b366;strokeWidth=2;" parent="1" vertex="1">
          <mxGeometry x="-700" y="-1194" width="160" height="60" as="geometry" />
        </mxCell>
        <mxCell id="ty2LM_nqQ7T1OHok4pah-33" value="Event ..." style="rounded=0;whiteSpace=wrap;html=1;fillColor=#d5e8d4;strokeColor=#82b366;strokeWidth=2;" parent="1" vertex="1">
          <mxGeometry x="-700" y="-1084" width="160" height="60" as="geometry" />
        </mxCell>
        <mxCell id="ty2LM_nqQ7T1OHok4pah-38" value="Home" style="text;html=1;align=center;verticalAlign=middle;whiteSpace=wrap;rounded=0;" parent="1" vertex="1">
          <mxGeometry x="-1651" y="-1412" width="60" height="30" as="geometry" />
        </mxCell>
        <mxCell id="ty2LM_nqQ7T1OHok4pah-39" value="Catholic Resources" style="rounded=0;whiteSpace=wrap;html=1;fillColor=#d5e8d4;strokeColor=#82b366;strokeWidth=2;" parent="1" vertex="1">
          <mxGeometry x="-1150" y="-1194" width="160" height="60" as="geometry" />
        </mxCell>
        <mxCell id="ty2LM_nqQ7T1OHok4pah-40" value="Education (link to other site)" style="rounded=0;whiteSpace=wrap;html=1;fillColor=#d5e8d4;strokeColor=#82b366;strokeWidth=2;" parent="1" vertex="1">
          <mxGeometry x="-1150" y="-1084" width="160" height="60" as="geometry" />
        </mxCell>
        <mxCell id="ty2LM_nqQ7T1OHok4pah-41" value="Family Life &amp;amp; Faith Formation" style="rounded=0;whiteSpace=wrap;html=1;fillColor=#d5e8d4;strokeColor=#82b366;strokeWidth=2;" parent="1" vertex="1">
          <mxGeometry x="-1150" y="-974" width="160" height="60" as="geometry" />
        </mxCell>
        <mxCell id="ty2LM_nqQ7T1OHok4pah-46" style="edgeStyle=orthogonalEdgeStyle;rounded=0;orthogonalLoop=1;jettySize=auto;html=1;exitX=1;exitY=0.5;exitDx=0;exitDy=0;entryX=0;entryY=0.5;entryDx=0;entryDy=0;strokeWidth=2;strokeColor=#3399FF;" parent="1" source="ty2LM_nqQ7T1OHok4pah-42" target="ty2LM_nqQ7T1OHok4pah-43" edge="1">
          <mxGeometry relative="1" as="geometry" />
        </mxCell>
        <mxCell id="ty2LM_nqQ7T1OHok4pah-42" value="Sacred Worship" style="rounded=0;whiteSpace=wrap;html=1;fillColor=#d5e8d4;strokeColor=#82b366;strokeWidth=2;" parent="1" vertex="1">
          <mxGeometry x="-1150" y="-866" width="160" height="60" as="geometry" />
        </mxCell>
        <mxCell id="ty2LM_nqQ7T1OHok4pah-43" value="Liturgical Ministry Survey" style="rounded=0;whiteSpace=wrap;html=1;fillColor=#fff2cc;strokeColor=#d6b656;strokeWidth=2;" parent="1" vertex="1">
          <mxGeometry x="-900" y="-866" width="160" height="60" as="geometry" />
        </mxCell>
        <mxCell id="ty2LM_nqQ7T1OHok4pah-47" value="Social Justice" style="rounded=0;whiteSpace=wrap;html=1;fillColor=#d5e8d4;strokeColor=#82b366;strokeWidth=2;" parent="1" vertex="1">
          <mxGeometry x="-1150" y="-760" width="160" height="60" as="geometry" />
        </mxCell>
        <mxCell id="ty2LM_nqQ7T1OHok4pah-48" value="Women&#39;s Club" style="rounded=0;whiteSpace=wrap;html=1;fillColor=#d5e8d4;strokeColor=#82b366;strokeWidth=2;" parent="1" vertex="1">
          <mxGeometry x="-1150" y="-645" width="160" height="60" as="geometry" />
        </mxCell>
        <mxCell id="ty2LM_nqQ7T1OHok4pah-49" value="Men&#39;s Club" style="rounded=0;whiteSpace=wrap;html=1;fillColor=#d5e8d4;strokeColor=#82b366;strokeWidth=2;" parent="1" vertex="1">
          <mxGeometry x="-1150" y="-532" width="160" height="60" as="geometry" />
        </mxCell>
        <mxCell id="ty2LM_nqQ7T1OHok4pah-57" value="Little Flower&#39;s Girls Club" style="rounded=0;whiteSpace=wrap;html=1;fillColor=#d5e8d4;strokeColor=#82b366;strokeWidth=2;" parent="1" vertex="1">
          <mxGeometry x="-1150" y="-420" width="160" height="60" as="geometry" />
        </mxCell>
        <mxCell id="ty2LM_nqQ7T1OHok4pah-58" value="Finance Council" style="rounded=0;whiteSpace=wrap;html=1;fillColor=#d5e8d4;strokeColor=#82b366;strokeWidth=2;" parent="1" vertex="1">
          <mxGeometry x="-1150" y="-305" width="160" height="60" as="geometry" />
        </mxCell>
        <mxCell id="ty2LM_nqQ7T1OHok4pah-59" value="Pastoral Council" style="rounded=0;whiteSpace=wrap;html=1;fillColor=#d5e8d4;strokeColor=#82b366;strokeWidth=2;" parent="1" vertex="1">
          <mxGeometry x="-1150" y="-190" width="160" height="60" as="geometry" />
        </mxCell>
        <mxCell id="ty2LM_nqQ7T1OHok4pah-60" value="Substitue Money (Scrip)" style="rounded=0;whiteSpace=wrap;html=1;fillColor=#d5e8d4;strokeColor=#82b366;strokeWidth=2;" parent="1" vertex="1">
          <mxGeometry x="-1150" y="-80" width="160" height="60" as="geometry" />
        </mxCell>
        <mxCell id="ty2LM_nqQ7T1OHok4pah-64" style="edgeStyle=orthogonalEdgeStyle;rounded=0;orthogonalLoop=1;jettySize=auto;html=1;exitX=0.5;exitY=1;exitDx=0;exitDy=0;entryX=0;entryY=0.5;entryDx=0;entryDy=0;strokeWidth=2;strokeColor=#3399FF;" parent="1" source="ty2LM_nqQ7T1OHok4pah-5" target="ty2LM_nqQ7T1OHok4pah-60" edge="1">
          <mxGeometry relative="1" as="geometry" />
        </mxCell>
        <mxCell id="ty2LM_nqQ7T1OHok4pah-65" value="&lt;font style=&quot;font-size: 20px;&quot;&gt;Blessed Sacrament Parish Website Information Architecture Diagram - Version 1.0.0.1&lt;/font&gt;&lt;div&gt;The diagram shows the structure of the website and the paths you can take to get to different pages.&lt;/div&gt;" style="rounded=0;whiteSpace=wrap;html=1;strokeWidth=2;strokeColor=default;" parent="1" vertex="1">
          <mxGeometry x="-1260" y="-1960" width="780" height="80" as="geometry" />
        </mxCell>
        <mxCell id="ty2LM_nqQ7T1OHok4pah-27" style="edgeStyle=orthogonalEdgeStyle;rounded=0;orthogonalLoop=1;jettySize=auto;html=1;exitX=0.5;exitY=1;exitDx=0;exitDy=0;entryX=0.25;entryY=1;entryDx=0;entryDy=0;jumpStyle=arc;strokeWidth=2;strokeColor=#3399FF;jumpSize=8;" parent="1" source="ty2LM_nqQ7T1OHok4pah-3" target="ty2LM_nqQ7T1OHok4pah-7" edge="1">
          <mxGeometry relative="1" as="geometry" />
        </mxCell>
        <mxCell id="AlpmempgAa0fRtOPFY_w-1" value="" style="rounded=0;whiteSpace=wrap;html=1;strokeWidth=2;" vertex="1" parent="1">
          <mxGeometry x="-1580" y="-1960" width="200" height="360" as="geometry" />
        </mxCell>
        <mxCell id="AlpmempgAa0fRtOPFY_w-2" value="Navigation Layer" style="rounded=0;whiteSpace=wrap;html=1;fillColor=#ffe6cc;strokeColor=#d79b00;strokeWidth=2;" vertex="1" parent="1">
          <mxGeometry x="-1560" y="-1920" width="160" height="60" as="geometry" />
        </mxCell>
        <mxCell id="AlpmempgAa0fRtOPFY_w-3" value="Layer 1 Pages - includes the Home Page" style="rounded=0;whiteSpace=wrap;html=1;fillColor=#e1d5e7;strokeColor=#9673a6;strokeWidth=2;" vertex="1" parent="1">
          <mxGeometry x="-1560" y="-1840" width="160" height="60" as="geometry" />
        </mxCell>
        <mxCell id="AlpmempgAa0fRtOPFY_w-4" value="Layer 2 Pages" style="rounded=0;whiteSpace=wrap;html=1;fillColor=#d5e8d4;strokeColor=#82b366;strokeWidth=2;" vertex="1" parent="1">
          <mxGeometry x="-1560" y="-1760" width="160" height="60" as="geometry" />
        </mxCell>
        <mxCell id="AlpmempgAa0fRtOPFY_w-5" value="Layer 3 Pages" style="rounded=0;whiteSpace=wrap;html=1;fillColor=#fff2cc;strokeColor=#d6b656;strokeWidth=2;" vertex="1" parent="1">
          <mxGeometry x="-1560" y="-1680" width="160" height="60" as="geometry" />
        </mxCell>
        <mxCell id="AlpmempgAa0fRtOPFY_w-6" value="&lt;font style=&quot;font-size: 14px;&quot;&gt;&lt;b&gt;Diagram Key&lt;/b&gt;&lt;/font&gt;" style="text;html=1;align=center;verticalAlign=middle;whiteSpace=wrap;rounded=0;" vertex="1" parent="1">
          <mxGeometry x="-1580" y="-1960" width="200" height="40" as="geometry" />
        </mxCell>
      </root>
    </mxGraphModel>
  </diagram>
</mxfile>
